<?xml version="1.0" encoding="UTF-8"?>
<!--Generator: Apple Native CoreSVG 341-->
<!DOCTYPE svg
PUBLIC "-//W3C//DTD SVG 1.1//EN"
       "http://www.w3.org/Graphics/SVG/1.1/DTD/svg11.dtd">
<svg version="1.1" xmlns="http://www.w3.org/2000/svg" xmlns:xlink="http://www.w3.org/1999/xlink" viewBox="0 0 559.277 860.449">
 <g>
  <path d="M261.035 113.379L298.242 113.379L298.242 18.1641C298.242 7.91016 290.039 0 279.785 0C269.238 0 261.035 8.20312 261.035 18.457ZM279.785 303.516C341.895 303.516 391.406 254.004 391.406 191.895C391.406 129.492 341.895 79.9805 279.785 79.9805C217.383 79.9805 167.871 129.492 167.871 191.895C167.871 254.004 217.383 303.516 279.785 303.516ZM279.785 254.59C243.75 254.59 216.797 227.93 216.797 191.895C216.797 155.859 243.75 128.906 279.785 128.906C315.527 128.906 342.48 155.859 342.48 191.895C342.48 227.93 315.527 254.59 279.785 254.59ZM260.742 276.27L210.059 263.672L60.3516 763.477C56.25 777.246 64.7461 791.602 78.8086 795.117C92.5781 799.219 106.348 791.016 110.449 776.953ZM74.707 745.605L49.8047 837.305C47.4609 846.387 52.1484 855.176 61.2305 857.52C70.3125 860.156 79.3945 855.176 81.7383 846.094L106.934 754.688ZM298.535 276.27L448.828 776.953C452.93 791.016 466.699 799.219 480.469 795.117C494.531 791.602 503.027 777.246 498.926 763.477L349.219 263.672ZM484.57 745.605L452.344 754.688L477.539 846.094C479.883 855.176 488.965 860.156 498.047 857.52C507.129 855.176 511.816 846.387 509.473 837.305ZM21.3867 486.328C9.66797 486.328 0 495.996 0 507.715C0 519.434 9.66797 529.102 21.3867 529.102L537.891 529.102C549.609 529.102 559.277 519.434 559.277 507.715C559.277 495.996 549.609 486.328 537.891 486.328ZM301.172 442.676C301.172 430.664 291.504 420.996 279.785 420.996C267.773 420.996 258.105 430.664 258.105 442.676L258.105 572.754C258.105 584.766 267.773 594.434 279.785 594.434C291.504 594.434 301.172 584.766 301.172 572.754Z" fill="white" fill-opacity="0.85"/>
 </g>
</svg>
